<svg width="360" height="482" viewBox="0 0 360 482" fill="none" xmlns="http://www.w3.org/2000/svg">
<path d="M67.5519 19.7967C47.4574 -18.3396 17.5322 12.9284 1.87049 38.1597C-0.787201 42.4413 -2 47.423 -2 52.4624V455.018C-2 467.129 5.28176 478.052 16.4608 482.71L62.0131 501.692C65.6694 503.216 69.5913 504 73.5524 504H304.92C308.745 504 312.534 503.269 316.084 501.845L364.164 482.57C375.542 478.008 383 466.983 383 454.724V214.966C383 204.004 376.975 194.002 367.664 188.216C340.819 171.533 309.293 146.69 326.044 135.726C351.236 119.236 294.28 95.7502 265.802 61.771C237.324 27.7918 188.036 98.7483 138.747 121.734C89.458 144.72 94.9346 71.7649 67.5519 19.7967Z" fill="#353535" stroke="#FF7A00" stroke-width="3"/>
</svg>
