<svg width="11" height="21" viewBox="0 0 11 21" fill="none" xmlns="http://www.w3.org/2000/svg">
<path d="M8.89545 11.5529C9.69152 11.5528 10.3684 10.9718 10.4892 10.1849L10.5586 9.73292C10.7117 8.73523 9.93972 7.83569 8.93034 7.83569C8.02057 7.83569 7.28305 7.09817 7.28305 6.1884V5.42362C7.28305 4.40693 7.78113 3.41528 9.37869 3.41528C10.2741 3.41528 11 2.68939 11 1.79397V1.69913C11 0.862694 10.3966 0.146842 9.56357 0.0713047C9.11963 0.031049 8.61682 0 8.12195 0C5.18485 0 3.26508 1.78049 3.26508 5.00321V6.20379C3.26508 7.10541 2.53417 7.83633 1.63254 7.83633C0.730914 7.83633 0 8.56724 0 9.46887V9.92073C0 10.8224 0.730914 11.5533 1.63254 11.5533C2.53417 11.5533 3.26508 12.2842 3.26508 13.1858V18.5302C3.26508 19.6397 4.16454 20.5392 5.27407 20.5392C6.3836 20.5392 7.28305 19.6397 7.28305 18.5302V13.1657C7.28305 12.2751 8.00489 11.5531 8.89545 11.5529Z" fill="white"/>
</svg>
