<svg width="17" height="17" viewBox="0 0 17 17" fill="none" xmlns="http://www.w3.org/2000/svg">
<path d="M17 8.6916C17 7.67917 16.1082 6.95283 15.0958 6.95283H10.3176C9.40933 6.95283 8.67301 7.68916 8.67301 8.59746C8.67301 9.50576 9.40933 10.2421 10.3176 10.2421H10.7879C12.1137 10.2421 13.0958 11.541 12.1076 12.4247C11.9533 12.5626 11.7867 12.6904 11.6085 12.807C10.8305 13.3165 9.8377 13.6177 8.67074 13.6177C6.41147 13.6177 4.50047 12.1226 3.81748 10.1136C3.6456 9.60417 3.5461 9.05928 3.5461 8.49889C3.5461 7.9385 3.6456 7.39362 3.81748 6.88417C4.50273 4.87739 6.41373 3.38228 8.67301 3.38228C9.36189 3.38228 10.0124 3.50807 10.6069 3.75684C11.4611 4.11423 12.5097 4.1427 13.1709 3.49453C13.8798 2.7996 13.8651 1.63237 13.0066 1.13395C11.7658 0.413586 10.3122 0 8.67301 0C5.28296 0 2.34974 1.90489 0.922709 4.68248C0.334708 5.82984 0 7.12782 0 8.50111C0 9.8744 0.334708 11.1702 0.922709 12.3175C2.34974 15.0951 5.28296 17 8.67301 17C11.016 17 12.979 16.238 14.4128 14.9401C16.0524 13.4605 17 11.2809 17 8.6916Z" fill="white"/>
</svg>
