<svg width="360" height="480" viewBox="0 0 360 480" fill="none" xmlns="http://www.w3.org/2000/svg">
<path d="M69.5519 19.7967C49.4574 -18.3396 19.5322 12.9284 3.87049 38.1597C1.2128 42.4413 0 47.423 0 52.4624V455.018C0 467.129 7.28176 478.052 18.4608 482.71L64.0131 501.692C67.6694 503.216 71.5913 504 75.5523 504H306.92C310.745 504 314.534 503.269 318.084 501.845L366.164 482.569C377.542 478.008 385 466.983 385 454.724V214.966C385 204.004 378.975 194.002 369.664 188.216C342.819 171.533 311.293 146.69 328.044 135.726C353.236 119.236 296.28 95.7502 267.802 61.771C239.324 27.7918 190.036 98.7483 140.747 121.734C91.458 144.72 96.9346 71.7649 69.5519 19.7967Z" fill="white" stroke="#FFB066" stroke-width="3"/>
</svg>
